<svg xmlns="http://www.w3.org/2000/svg" width="23" height="23" viewBox="0 0 23 23"><g><g><path fill="#bf2426" d="M3.368 3.367c4.484-4.485 11.78-4.485 16.265 0 4.485 4.484 4.485 11.78 0 16.265-4.485 4.485-11.782 4.486-16.266.001-4.485-4.484-4.484-11.782 0-16.266zm15.52 15.52c4.072-4.074 4.072-10.701 0-14.774C14.813.039 8.186.039 4.113 4.113.04 8.186.04 14.813 4.113 18.887c4.073 4.073 10.7 4.073 14.774 0zM6.046 8.032l1.987-1.987L11.5 9.512l3.466-3.466 1.988 1.987-3.466 3.466 3.466 3.466-1.988 1.988-3.466-3.466-3.465 3.465-1.987-1.988L9.513 11.5z"/></g></g></svg>